<svg width="64" height="64" viewBox="0 0 64 64" xmlns="http://www.w3.org/2000/svg" role="img" aria-label="Google">
  <path d="M57 32.7c0-1.8-.1-3.1-.5-4.6H32v9h14.4c-.3 2.3-1.9 5.8-5.3 8.1l-.1.6 7.7 6 .5.1c4.8-4.4 7.8-10.8 7.8-19.2Z" fill="#4285F4"/>
  <path d="M32 58c7 0 12.8-2.3 17.1-6.2l-8.1-6.7c-2.2 1.5-5.1 2.5-9 2.5-6.9 0-12.8-4.4-14.9-10.6l-.6.1-8 6.2-.2.6C12.6 52.4 21.6 58 32 58Z" fill="#34A853"/>
  <path d="M17.1 37c-.6-1.8-.9-3.8-.9-5.8s.3-4 .8-5.8l-.1-.6-8.2-6.3-.5.2C6.4 22.3 5.4 27 5.4 32s1 9.7 2.8 13.3l8.9-8.3Z" fill="#FBBC05"/>
  <path d="M32 16.3c4.9 0 8.2 2.1 10 3.9l7.3-7.2C44.8 8.8 39 6 32 6 21.6 6 12.6 11.6 8.2 20l8.8 6.8C19.2 20.8 25.1 16.3 32 16.3Z" fill="#EA4335"/>
</svg>
