<svg width="64" height="64" viewBox="0 0 64 64" xmlns="http://www.w3.org/2000/svg" role="img" aria-label="OpenAI">
  <g fill="none" stroke="#111111" stroke-width="4.2" stroke-linecap="round" stroke-linejoin="round">
    <path d="M31.8 10.4c5.1-2.9 11.7-1.1 14.6 4l3.4 6.1-8.7 5-3.4-6.1c-1.4-2.4-4.4-3.2-6.8-1.8"/>
    <path d="M50.6 20.4c5.1 2.9 6.9 9.5 4 14.6l-3.5 6-8.7-5 3.5-6a4.9 4.9 0 0 0-1.8-6.8"/>
    <path d="M51.1 42.1c0 5.9-4.8 10.7-10.7 10.7h-6.9v-10h6.9c2.7 0 4.9-2.2 4.9-4.9"/>
    <path d="M32.9 53c-2.9 5.1-9.5 6.9-14.6 4l-6-3.5 5-8.7 6 3.5c2.4 1.4 5.4.6 6.8-1.8"/>
    <path d="M12.4 53.4c-5.1-2.9-6.9-9.5-4-14.6l3.4-6 8.7 5-3.4 6c-1.4 2.4-.6 5.4 1.8 6.8"/>
    <path d="M11.8 31.8c0-5.9 4.8-10.7 10.7-10.7h6.9v10h-6.9c-2.7 0-4.9 2.2-4.9 4.9"/>
  </g>
</svg>
